HIERARCHY
ROOT joint_Root
{
	OFFSET 0.0 0.0 0.0
	CHANNELS 6 Xposition Yposition Zposition Zrotation Xrotation Yrotation 
	JOINT Hips
	{
		OFFSET 4.5925 91.4895 -427.239
		CHANNELS 6 Xposition Yposition Zposition Zrotation Xrotation Yrotation 
		JOINT Spine
		{
			OFFSET 15.7357 0.0 0.0
			CHANNELS 6 Xposition Yposition Zposition Zrotation Xrotation Yrotation 
			JOINT Chest
			{
				OFFSET 8.98455 -0.406207 0.0
				CHANNELS 6 Xposition Yposition Zposition Zrotation Xrotation Yrotation 
				JOINT Neck
				{
					OFFSET 16.3773 0.0 0.0
					CHANNELS 6 Xposition Yposition Zposition Zrotation Xrotation Yrotation 
					JOINT Head
					{
						OFFSET 6.45672 0.0 0.0
						CHANNELS 6 Xposition Yposition Zposition Zrotation Xrotation Yrotation 
						End Site
						{
							OFFSET 0.0 0.0 0.0
						}
					}
				}
				JOINT Shoulder_L
				{
					OFFSET 12.9942 -0.242716 4.98039
					CHANNELS 6 Xposition Yposition Zposition Zrotation Xrotation Yrotation 
					JOINT UpperArm_L
					{
						OFFSET 5.34809 0.0 0.0
						CHANNELS 6 Xposition Yposition Zposition Zrotation Xrotation Yrotation 
						JOINT LowerArm_L
						{
							OFFSET 24.3286 1.87007e-05 0.0
							CHANNELS 6 Xposition Yposition Zposition Zrotation Xrotation Yrotation 
							JOINT Hand_L
							{
								OFFSET 22.2916 0.0 0.0
								CHANNELS 6 Xposition Yposition Zposition Zrotation Xrotation Yrotation 
								End Site
								{
									OFFSET 0.0 0.0 0.0
								}
							}
						}
					}
				}
				JOINT Shoulder_R
				{
					OFFSET 12.9945 -0.242716 -4.98039
					CHANNELS 6 Xposition Yposition Zposition Zrotation Xrotation Yrotation 
					JOINT UpperArm_R
					{
						OFFSET -5.34813 0.0 0.0
						CHANNELS 6 Xposition Yposition Zposition Zrotation Xrotation Yrotation 
						JOINT LowerArm_R
						{
							OFFSET -24.3289 0.000322201 0.0
							CHANNELS 6 Xposition Yposition Zposition Zrotation Xrotation Yrotation 
							JOINT Hand_R
							{
								OFFSET -22.2915 -0.000108084 0.0
								CHANNELS 6 Xposition Yposition Zposition Zrotation Xrotation Yrotation 
								End Site
								{
									OFFSET 0.0 0.0 0.0
								}
							}
						}
					}
				}
			}
		}
		JOINT UpperLeg_L
		{
			OFFSET -2.19248 -6.46944 0.0
			CHANNELS 6 Xposition Yposition Zposition Zrotation Xrotation Yrotation 
			JOINT LowerLeg_L
			{
				OFFSET 39.0811 0.0 -1.23785e-05
				CHANNELS 6 Xposition Yposition Zposition Zrotation Xrotation Yrotation 
				JOINT Foot_L
				{
					OFFSET 40.9854 0.0 -1.26872e-05
					CHANNELS 6 Xposition Yposition Zposition Zrotation Xrotation Yrotation 
					JOINT Toes_L
					{
						OFFSET 11.7543 0.0 0.0
						CHANNELS 6 Xposition Yposition Zposition Zrotation Xrotation Yrotation 
						End Site
						{
							OFFSET 0.0 0.0 0.0
						}
					}
				}
			}
		}
		JOINT UpperLeg_R
		{
			OFFSET -2.19251 6.46944 0.0
			CHANNELS 6 Xposition Yposition Zposition Zrotation Xrotation Yrotation 
			JOINT LowerLeg_R
			{
				OFFSET -39.0811 -0.00228153 -0.0401928
				CHANNELS 6 Xposition Yposition Zposition Zrotation Xrotation Yrotation 
				JOINT Foot_R
				{
					OFFSET -40.9854 0.0 0.0
					CHANNELS 6 Xposition Yposition Zposition Zrotation Xrotation Yrotation 
					JOINT Toes_R
					{
						OFFSET -11.7543 0.0 0.0
						CHANNELS 6 Xposition Yposition Zposition Zrotation Xrotation Yrotation 
						End Site
						{
							OFFSET 0.0 0.0 0.0
						}
					}
				}
			}
		}
	}
}
MOTION
Frames:	4
Frame Time:	0.0333333
0.000000 0.000000 0.000000 0.000000 0.000000 -0.000000 -1.266580 91.891000 0.934898 89.241700 -0.582269 1.747390 15.735700 0.000005 -0.000001 76.738200 86.906400 -77.182100 8.984550 -0.406207 -0.000000 -1.749270 -1.382150 -0.908740 16.377300 -0.000001 -0.000001 4.639850 -4.175800 2.044710 6.456720 -0.000001 -0.000000 0.122798 -3.974970 -0.543841 12.994200 -0.242716 4.980390 -83.131100 -12.632900 -61.153800 5.348090 -0.000007 -0.000001 -35.149000 -60.558600 -78.932200 24.328600 0.000019 0.000005 24.124800 20.093400 -52.507200 22.291600 -0.000001 0.000005 40.183300 5.179230 3.233800 12.994500 -0.242716 -4.980390 94.895600 -10.095100 -63.957000 -5.348130 -0.000001 -0.000004 -58.242100 -56.484100 -106.055000 -24.328900 0.000322 -0.000009 6.609860 7.355270 -42.154900 -22.291500 -0.000108 -0.000004 22.368800 5.546830 -8.557080 -2.192480 -6.469440 -0.000000 -175.473000 -11.752100 -4.735340 39.081100 -0.000007 -0.000012 -0.141994 0.318518 24.027200 40.985400 -0.000006 -0.000013 -0.390122 6.933440 -67.434300 11.754300 -0.000000 0.000003 -0.000207 -0.001904 -16.649300 -2.192510 6.469440 -0.000001 177.827000 25.227200 176.247000 -39.081100 -0.002282 -0.040193 0.008682 -0.012217 23.717100 -40.985400 0.000008 0.000006 6.096220 12.520700 -68.916800 -11.754300 -0.000006 -0.000006 -0.001574 -0.023245 -17.518300
0.000000 0.000000 0.000000 0.000000 0.000000 -0.000000 -1.321010 91.874400 0.902619 89.206900 -0.656479 1.843000 15.735700 0.000005 -0.000001 76.754900 86.814000 -77.219000 8.984550 -0.406207 -0.000000 -1.569250 -1.421800 -0.947594 16.377300 -0.000001 -0.000001 4.512680 -4.274330 2.182020 6.456720 -0.000001 -0.000000 -0.126815 -3.905480 -0.314804 12.994200 -0.242716 4.980390 -83.547200 -11.907900 -61.271500 5.348090 -0.000007 -0.000001 -34.156800 -59.212100 -74.704300 24.328600 0.000019 0.000005 24.844300 17.431200 -57.100500 22.291600 -0.000001 0.000005 40.794900 5.173250 3.381230 12.994500 -0.242716 -4.980390 94.547700 -9.479810 -64.222800 -5.348130 -0.000001 -0.000004 -53.581100 -56.593700 -99.781700 -24.328900 0.000322 -0.000009 6.733590 6.817180 -44.854100 -22.291500 -0.000108 -0.000004 22.173000 5.519670 -7.348330 -2.192480 -6.469440 -0.000000 -175.377000 -11.820600 -4.712520 39.081100 -0.000007 -0.000012 -0.143749 0.320399 24.163800 40.985400 -0.000006 -0.000013 -0.423455 6.929720 -67.481700 11.754300 -0.000000 0.000003 -0.000235 -0.002119 -16.657100 -2.192510 6.469440 -0.000001 177.848000 25.203600 176.312000 -39.081100 -0.002282 -0.040193 0.005552 -0.005083 23.755700 -40.985400 0.000008 0.000006 6.040190 12.592700 -68.951300 -11.754300 -0.000006 -0.000006 -0.001395 -0.020870 -17.421700
0.000000 0.000000 0.000000 0.000000 0.000000 -0.000000 -1.369170 91.842400 0.880457 89.156500 -0.856744 2.021540 15.735700 0.000005 -0.000001 77.171300 86.708700 -77.668200 8.984550 -0.406207 -0.000000 -1.353820 -1.421730 -1.010340 16.377300 -0.000001 -0.000001 4.346420 -4.336500 2.378730 6.456720 -0.000001 -0.000000 -0.382518 -3.816880 -0.069906 12.994200 -0.242716 4.980390 -84.082200 -10.976200 -61.436100 5.348090 -0.000007 -0.000001 -33.543200 -57.165000 -69.578100 24.328600 0.000019 0.000005 24.513400 13.289800 -63.253000 22.291600 -0.000001 0.000005 39.980100 5.172820 3.391280 12.994500 -0.242716 -4.980390 93.985100 -8.503400 -64.773900 -5.348130 -0.000001 -0.000004 -47.428500 -55.934600 -90.957400 -24.328900 0.000322 -0.000009 5.947580 5.072930 -49.694700 -22.291500 -0.000108 -0.000004 22.059700 5.493810 -6.285940 -2.192480 -6.469440 -0.000000 -175.228000 -12.036300 -4.629950 39.081100 -0.000007 -0.000012 -0.147691 0.325587 24.399900 40.985400 -0.000006 -0.000013 -0.439245 6.990780 -67.592500 11.754300 -0.000000 0.000003 -0.000225 -0.002043 -16.654400 -2.192510 6.469440 -0.000001 177.827000 25.107500 176.400000 -39.081100 -0.002282 -0.040193 -0.003425 0.015195 23.916600 -40.985400 0.000008 0.000006 5.874820 12.724800 -68.967900 -11.754300 -0.000006 -0.000006 -0.001325 -0.019918 -17.383100
0.000000 0.000000 0.000000 0.000000 0.000000 -0.000000 -1.379670 91.804400 0.864064 89.125200 -1.200310 2.190520 15.735700 0.000005 -0.000001 77.779400 86.632600 -78.286700 8.984550 -0.406207 -0.000000 -1.189860 -1.385650 -1.028770 16.377300 -0.000001 -0.000001 4.176670 -4.253120 2.419250 6.456720 -0.000001 -0.000000 -0.495608 -3.738630 0.153959 12.994200 -0.242716 4.980390 -84.668400 -10.133500 -62.058000 5.348090 -0.000007 -0.000001 -32.354500 -54.306800 -62.042700 24.328600 0.000019 0.000005 23.053900 8.504400 -70.847300 22.291600 -0.000001 0.000005 38.340000 5.186640 3.049910 12.994500 -0.242716 -4.980390 93.303900 -7.410370 -65.888200 -5.348130 -0.000001 -0.000004 -41.044500 -54.240800 -80.338900 -24.328900 0.000322 -0.000009 4.638460 3.028570 -56.959100 -22.291500 -0.000108 -0.000004 21.610100 5.472150 -5.449350 -2.192480 -6.469440 -0.000000 -175.156000 -12.205400 -4.544230 39.081100 -0.000007 -0.000012 -0.149307 0.325226 24.659300 40.985400 -0.000006 -0.000013 -0.465612 6.824210 -67.740300 11.754300 -0.000000 0.000003 -0.000224 -0.002039 -16.654200 -2.192510 6.469440 -0.000001 177.737000 24.946800 176.456000 -39.081100 -0.002282 -0.040193 -0.017554 0.046596 24.125000 -40.985400 0.000008 0.000006 5.651370 12.987500 -68.990500 -11.754300 -0.000006 -0.000006 -0.001426 -0.021280 -17.438400
